<svg xmlns="http://www.w3.org/2000/svg" width="49mm" height="55.367mm" viewBox="0 0.606 49 55.367"><path fill="#000000" fill-rule="evenodd" d="M22.54 1.132A3.92 3.92 0 0 1 26.46 1.132L47.04 13.013A3.92 3.92 0 0 1 49 16.408L49 40.172A3.92 3.92 0 0 1 47.04 43.567L26.46 55.449A3.92 3.92 0 0 1 22.54 55.449L1.96 43.567A3.92 3.92 0 0 1 0 40.172L0 39.59A1.605 1.605 0 0 1 0.689 38.792L2.78 37.585A0.968 0.968 0 0 1 3.747 37.585L5.59 38.649A0.968 0.968 0 0 1 5.944 39.003L6.729 38.55A1.874 1.874 0 0 0 6.043 37.864L4.201 36.8A1.874 1.874 0 0 0 2.326 36.8L0.236 38.007A2.511 2.511 0 0 0 0 38.162L0 38.162L0 36.76A1.605 1.605 0 0 1 0.689 35.963L5.062 33.438A1.305 1.305 0 0 1 6.367 33.438L10.323 35.722A1.305 1.305 0 0 1 10.8 36.2L11.585 35.746A2.211 2.211 0 0 0 10.776 34.937L6.82 32.653A2.211 2.211 0 0 0 4.608 32.653L0.236 35.177A2.511 2.511 0 0 0 0 35.332L0 35.332L0 33.93A1.605 1.605 0 0 1 0.689 33.133L7.344 29.291A1.641 1.641 0 0 1 8.986 29.291L15.055 32.795A1.641 1.641 0 0 1 15.656 33.396L16.442 32.943A2.548 2.548 0 0 0 15.509 32.01L9.439 28.506A2.548 2.548 0 0 0 6.891 28.506L0.236 32.348A2.511 2.511 0 0 0 0 32.502L0 32.502L0 31.101A1.605 1.605 0 0 1 0.689 30.303L9.626 25.143A1.978 1.978 0 0 1 11.605 25.143L19.788 29.868A1.978 1.978 0 0 1 20.512 30.592L21.298 30.139A2.885 2.885 0 0 0 20.242 29.083L12.058 24.358A2.885 2.885 0 0 0 9.173 24.358L0.236 29.518A2.511 2.511 0 0 0 0 29.672L0 29.672L0 28.271A1.605 1.605 0 0 1 0.689 27.474L11.908 20.996A2.315 2.315 0 0 1 14.224 20.996L24.521 26.941A2.315 2.315 0 0 1 25.369 27.789L26.154 27.335A3.222 3.222 0 0 0 24.974 26.156L14.677 20.211A3.222 3.222 0 0 0 11.455 20.211L0.236 26.688A2.511 2.511 0 0 0 0 26.843L0 26.843L0 25.441A1.605 1.605 0 0 1 0.689 24.644L14.191 16.849A2.652 2.652 0 0 1 16.843 16.849L29.254 24.014A2.652 2.652 0 0 1 30.225 24.985L31.01 24.532A3.559 3.559 0 0 0 29.707 23.229L17.296 16.063A3.559 3.559 0 0 0 13.737 16.063L0.236 23.859A2.511 2.511 0 0 0 0 24.013L0 24.013L0 22.611A1.605 1.605 0 0 1 0.689 21.814L16.473 12.701A2.989 2.989 0 0 1 19.462 12.701L33.987 21.087A2.989 2.989 0 0 1 35.081 22.181L35.866 21.728A3.896 3.896 0 0 0 34.44 20.302L19.915 11.916A3.896 3.896 0 0 0 16.019 11.916L0.236 21.029A2.511 2.511 0 0 0 0 21.183L0 21.183L0 19.782A1.605 1.605 0 0 1 0.689 18.984L18.755 8.554A3.326 3.326 0 0 1 22.081 8.554L38.719 18.16A3.326 3.326 0 0 1 39.937 19.378L40.722 18.924A4.232 4.232 0 0 0 39.173 17.375L22.534 7.769A4.232 4.232 0 0 0 18.302 7.769L0.236 18.199A2.511 2.511 0 0 0 0 18.353L0 18.353L0 16.952A1.605 1.605 0 0 1 0.689 16.155L21.037 4.407A3.663 3.663 0 0 1 24.7 4.407L43.452 15.233A3.663 3.663 0 0 1 44.793 16.574L45.578 16.121A4.569 4.569 0 0 0 43.906 14.448L25.153 3.621A4.569 4.569 0 0 0 20.584 3.621L0.236 15.369A2.511 2.511 0 0 0 0.122 15.439L0.122 15.439A3.92 3.92 0 0 1 1.96 13.013L22.54 1.132Z"/></svg>